<svg xmlns="http://www.w3.org/2000/svg" viewBox="0 0 128 152" role="img" aria-label="Explorer Manager">
  <defs>
    <linearGradient id="lgBack" x1="0" y1="0" x2="0" y2="1">
      <stop offset="0%" stop-color="#F0A92A"/>
      <stop offset="100%" stop-color="#E59616"/>
    </linearGradient>
    <linearGradient id="lgFront" x1="0.1" y1="0" x2="0.9" y2="1">
      <stop offset="0%" stop-color="#F8D45C"/>
      <stop offset="55%" stop-color="#F5C63F"/>
      <stop offset="100%" stop-color="#EDB520"/>
    </linearGradient>
    <linearGradient id="lgBlue" x1="0" y1="0" x2="1" y2="1">
      <stop offset="0%" stop-color="#4FA8F5"/>
      <stop offset="100%" stop-color="#1F63CE"/>
    </linearGradient>
    <linearGradient id="lgLine" x1="0" y1="0" x2="1" y2="0">
      <stop offset="0%" stop-color="#2E7BE0"/>
      <stop offset="100%" stop-color="#5FB0F7"/>
    </linearGradient>
    <clipPath id="lgClip">
      <path d="M4 40 q0-11 11-11 h98 q11 0 11 11 v52 q0 12-12 12 H16 q-12 0-12-12 Z"/>
    </clipPath>
  </defs>

  <path fill="url(#lgBack)"
        d="M9 20 q0-10 10-10 h33 q4 0 6.8 2.9 L70 24 h39 q10 0 10 10 v22 H9 Z"/>

  <path fill="url(#lgFront)"
        d="M4 40 q0-11 11-11 h98 q11 0 11 11 v52 q0 12-12 12 H16 q-12 0-12-12 Z"/>

  <g clip-path="url(#lgClip)">
    <rect x="26" y="55" width="76" height="56" rx="10" fill="url(#lgBlue)"/>
    <rect x="41" y="68" width="46" height="43" rx="6" fill="#FFFFFF"/>
    <g fill="url(#lgLine)">
      <rect x="48" y="78" width="32" height="5.4" rx="2.7"/>
      <rect x="48" y="88" width="26" height="5.4" rx="2.7"/>
      <rect x="48" y="98" width="18" height="5.4" rx="2.7"/>
    </g>
  </g>

  <text x="64" y="140" text-anchor="middle" fill="#0B1533"
        font-family="'Segoe UI', 'Inter', system-ui, -apple-system, Arial, sans-serif"
        font-size="17" font-weight="700" letter-spacing="-0.3"
        textLength="118" lengthAdjust="spacingAndGlyphs">Explorer Manager</text>
</svg>
